<svg xmlns="http://www.w3.org/2000/svg" viewBox="0 0 1080 1080"><defs><style>.cls-1{fill:#fff;}.cls-2{fill:#228d0d;}.cls-3{fill:#fff026;}.cls-4{font-size:64px;fill:#444;font-family:Lato-BlackItalic, Lato;font-weight:800;font-style:italic;}.cls-5{letter-spacing:-0.02em;}</style></defs><g id="Layer_2" data-name="Layer 2"><g id="Layer_1-2" data-name="Layer 1"><rect class="cls-1" width="1080" height="1080"/><path class="cls-2" d="M190.79,386.19c58.85,0,83.79,31.89,86.64,71.05H233.25C229.85,436,218.76,421,190.2,421c-25.18,0-37.64,11.94-37.64,31.54,0,20.64,12.91,27.4,50.57,38.49,64.12,19,80.52,44.26,80.52,80.22,0,41.74-28.12,75.56-90.86,75.56-54.54,0-88.88-28.08-92.18-77h44.44c4.11,26.48,21.63,41.83,49.78,41.83,29.49,0,43-13.61,43-35.12,0-24.82-13.73-35.14-53.16-46.75-56.95-16.28-77.15-36.23-77.15-72.86,0-44.82,35.24-70.68,83.26-70.68m0-12c-26.92,0-50.17,7.34-67.22,21.23-18.34,14.95-28,36.2-28,61.45,0,22.37,6.65,39.13,20.94,52.75,13.38,12.75,34,22.81,64.87,31.64,40.11,11.81,44.5,20.19,44.5,35.22,0,7.48-2.06,12.89-6.28,16.54-5,4.3-13.55,6.58-24.73,6.58-21.9,0-34.66-10.65-37.92-31.66a12,12,0,0,0-11.86-10.17H100.61a12,12,0,0,0-12,12.81c1.84,27.3,12.62,49.88,31.18,65.3,18.05,15,43.29,22.93,73,22.93,16.47,0,31.43-2.2,44.46-6.55a89.68,89.68,0,0,0,32.62-18.74c16.86-15.51,25.78-37,25.78-62.27,0-22.85-6.16-40.2-19.38-54.59-14.19-15.45-36.35-27.25-69.74-37.13-40.27-11.87-42-16.85-42-27,0-6.4,1.71-11,5.24-14.06C173.94,434.9,181,433,190.2,433c19.44,0,28.18,7.33,31.2,26.14a12,12,0,0,0,11.85,10.1h44.18a12,12,0,0,0,12-12.87c-1.74-23.87-10.78-44-26.15-58.16-17.28-15.94-41.66-24-72.46-24Z"/><path class="cls-2" d="M525.17,389.52V643.71h-55c-90.4-179-99.1-197.72-103.43-207.64h-.37c1.85,32.38,1.89,75.85,1.89,121.32v86.32H327V389.52h57.81C469.19,553.15,481.92,578,486.06,589.75h.63c-2.48-31.44-2.85-72.77-2.85-114.21v-86h41.33m0-12H483.84a12,12,0,0,0-12,12v86c0,19.36.08,39.05.43,57.82-14.66-28.83-38.22-74.57-76.75-149.34a12,12,0,0,0-10.67-6.5H327a12,12,0,0,0-12,12V643.71a12,12,0,0,0,12,12h41.22a12,12,0,0,0,12-12V557.39c0-22.31,0-45-.26-66.33,14.79,29.75,39,77.92,79.46,158.06a12,12,0,0,0,10.71,6.59h55a12,12,0,0,0,12-12V389.52a12,12,0,0,0-12-12Z"/><path class="cls-2" d="M694.49,389.52l83.27,254.19H730.44L709,577.51H621.88l-20.26,66.2H557.33c8.29-24.67,70.13-226.2,79.42-254.19h57.74M630.8,540h68.94C682,483.72,670.08,446.83,664.6,424.29h-.48c-6.47,28.86-18.57,68.34-33.32,115.71m63.69-162.48H636.75a12,12,0,0,0-11.39,8.22c-4.62,13.92-21.54,68.51-39.45,126.3-17.6,56.78-35.8,115.48-40,127.84a12,12,0,0,0,11.38,15.83h44.29a12,12,0,0,0,11.47-8.49l17.66-57.71H700.3L719,647.4a12,12,0,0,0,11.42,8.31h47.32A12,12,0,0,0,789.17,640L705.89,385.79a12,12,0,0,0-11.4-8.27ZM647.1,528c6.72-21.71,12.73-41.41,17.76-59,4.55,14.84,10.09,32.4,16.67,53.2l1.83,5.81Z"/><path class="cls-2" d="M901.77,389.52c47.62,0,87.15,24.53,87.15,74.09,0,51.84-37.6,78.15-91.48,78.15H856v102H811V389.52h90.78M856,505.91h38.9c29.47,0,48.37-10.65,48.37-41.42,0-27.25-19.3-39-47.19-39H856v80.39m45.82-128.39H811a12,12,0,0,0-12,12V643.71a12,12,0,0,0,12,12h45a12,12,0,0,0,12-12v-90h29.49c30,0,55.46-7.71,73.49-22.31,19.62-15.87,30-39.34,30-67.84,0-27.13-10.5-49.64-30.35-65.1-17.64-13.73-41.43-21-68.8-21Zm-33.82,60H896c11.67,0,20.93,2.35,26.78,6.81,5.66,4.31,8.41,10.91,8.41,20.16,0,17.66-6.19,29.42-36.37,29.42H868V437.52Z"/><path class="cls-3" d="M145.05,568.77c4.11,26.48,21.63,41.83,49.78,41.83,29.49,0,43-13.61,43-35.12,0-24.82-13.73-35.14-53.16-46.75-56.95-16.28-77.15-36.23-77.15-72.86,0-44.82,35.24-70.68,83.26-70.68,58.85,0,83.79,31.89,86.64,71.05H233.25C229.85,435,218.76,420,190.2,420c-25.18,0-37.64,11.94-37.64,31.54,0,20.64,12.91,27.4,50.57,38.49,64.12,19,80.52,44.26,80.52,80.22,0,41.74-28.12,75.56-90.86,75.56-54.54,0-88.88-28.08-92.18-77Z"/><path class="cls-3" d="M327,642.71V388.52h57.81C469.19,552.15,481.92,577,486.06,588.75h.63c-2.48-31.44-2.85-72.77-2.85-114.21v-86h41.33V642.71h-55c-90.4-179-99.1-197.72-103.43-207.64h-.37c1.85,32.38,1.89,75.85,1.89,121.32v86.32Z"/><path class="cls-3" d="M621.88,576.51l-20.26,66.2H557.33c8.29-24.67,70.13-226.21,79.42-254.19h57.74l83.27,254.19H730.44L709,576.51ZM699.74,539C682,482.71,670.08,445.83,664.6,423.29h-.48c-6.47,28.86-18.57,68.34-33.32,115.71Z"/><path class="cls-3" d="M811,388.52h90.78c47.62,0,87.15,24.53,87.15,74.09,0,51.84-37.6,78.15-91.48,78.15H856v102H811Zm45,116.39h38.9c29.47,0,48.37-10.65,48.37-41.42,0-27.25-19.3-39-47.19-39H856Z"/><text class="cls-4" transform="translate(88 715.22)">Nutrient Solution for H<tspan class="cls-5" x="619.57" y="0">y</tspan><tspan x="651.32" y="0">d</tspan><tspan class="cls-5" x="686.58" y="0">r</tspan><tspan x="709.3" y="0">oponics</tspan></text></g></g></svg>